<svg width="24" height="24" viewBox="0 0 24 24" fill="none" xmlns="http://www.w3.org/2000/svg">
<path fill-rule="evenodd" clip-rule="evenodd" d="M7.33 2H16.66C20.06 2 22 3.92 22 7.33V16.67C22 20.06 20.07 22 16.67 22H7.33C3.92 22 2 20.06 2 16.67V7.33C2 3.92 3.92 2 7.33 2ZM7.99982 7C7.44753 7 6.99982 7.44772 6.99982 8C6.99982 8.55228 7.44753 9 7.99982 9H15.9998C16.5521 9 16.9998 8.55228 16.9998 8C16.9998 7.44772 16.5521 7 15.9998 7H7.99982ZM7.99982 11C7.44753 11 6.99982 11.4477 6.99982 12C6.99982 12.5523 7.44753 13 7.99982 13H15.9998C16.5521 13 16.9998 12.5523 16.9998 12C16.9998 11.4477 16.5521 11 15.9998 11H7.99982ZM6.99982 16C6.99982 15.4477 7.44753 15 7.99982 15H15.9998C16.5521 15 16.9998 15.4477 16.9998 16C16.9998 16.5523 16.5521 17 15.9998 17H7.99982C7.44753 17 6.99982 16.5523 6.99982 16Z" fill="#2F3492"/>
</svg>
